<?xml version="1.0" encoding="utf-8"?>
<COLLADA xmlns="http://www.collada.org/2005/11/COLLADASchema" version="1.4.1" xmlns:xsi="http://www.w3.org/2001/XMLSchema-instance">
  <asset>
    <contributor>
      <author>Blender User</author>
      <authoring_tool>Blender 2.93.1 commit date:2021-06-22, commit time:05:57, hash:1b8d33b18c2f</authoring_tool>
    </contributor>
    <created>2022-06-27T21:58:02</created>
    <modified>2022-06-27T21:58:02</modified>
    <unit name="meter" meter="1"/>
    <up_axis>Z_UP</up_axis>
  </asset>
  <library_cameras>
    <camera id="Camera-camera" name="Camera">
      <optics>
        <technique_common>
          <perspective>
            <xfov sid="xfov">39.59775</xfov>
            <aspect_ratio>1.777778</aspect_ratio>
            <znear sid="znear">0.1</znear>
            <zfar sid="zfar">100</zfar>
          </perspective>
        </technique_common>
      </optics>
      <extra>
        <technique profile="blender">
          <shiftx sid="shiftx" type="float">0</shiftx>
          <shifty sid="shifty" type="float">0</shifty>
          <dof_distance sid="dof_distance" type="float">10</dof_distance>
        </technique>
      </extra>
    </camera>
  </library_cameras>
  <library_lights>
    <light id="Light-light" name="Light">
      <technique_common>
        <point>
          <color sid="color">1000 1000 1000</color>
          <constant_attenuation>1</constant_attenuation>
          <linear_attenuation>0</linear_attenuation>
          <quadratic_attenuation>0.00111109</quadratic_attenuation>
        </point>
      </technique_common>
      <extra>
        <technique profile="blender">
          <type sid="type" type="int">0</type>
          <flag sid="flag" type="int">0</flag>
          <mode sid="mode" type="int">1</mode>
          <gamma sid="blender_gamma" type="float">1</gamma>
          <red sid="red" type="float">1</red>
          <green sid="green" type="float">1</green>
          <blue sid="blue" type="float">1</blue>
          <shadow_r sid="blender_shadow_r" type="float">0</shadow_r>
          <shadow_g sid="blender_shadow_g" type="float">0</shadow_g>
          <shadow_b sid="blender_shadow_b" type="float">0</shadow_b>
          <energy sid="blender_energy" type="float">1000</energy>
          <dist sid="blender_dist" type="float">29.99998</dist>
          <spotsize sid="spotsize" type="float">75</spotsize>
          <spotblend sid="spotblend" type="float">0.15</spotblend>
          <att1 sid="att1" type="float">0</att1>
          <att2 sid="att2" type="float">1</att2>
          <falloff_type sid="falloff_type" type="int">2</falloff_type>
          <clipsta sid="clipsta" type="float">0.04999995</clipsta>
          <clipend sid="clipend" type="float">30.002</clipend>
          <bias sid="bias" type="float">1</bias>
          <soft sid="soft" type="float">3</soft>
          <bufsize sid="bufsize" type="int">2880</bufsize>
          <samp sid="samp" type="int">3</samp>
          <buffers sid="buffers" type="int">1</buffers>
          <area_shape sid="area_shape" type="int">1</area_shape>
          <area_size sid="area_size" type="float">0.1</area_size>
          <area_sizey sid="area_sizey" type="float">0.1</area_sizey>
          <area_sizez sid="area_sizez" type="float">1</area_sizez>
        </technique>
      </extra>
    </light>
  </library_lights>
  <library_images/>
  <library_geometries>
    <geometry id="TABV_propeller__003-mesh" name="TABV_propeller .003">
      <mesh>
        <source id="TABV_propeller__003-mesh-positions">
          <float_array id="TABV_propeller__003-mesh-positions-array" count="720">-0.02198272 -0.04596698 0.001074492 -0.02231073 -0.04577761 0.001999974 -0.02848923 -0.04221051 -0.001999974 -0.02881723 -0.04202109 -0.001074492 7.66125e-5 -0.004999399 -0.001999974 7.66125e-5 -0.004999399 5.09839e-4 -2.29766e-4 -0.00499469 0.001480758 -2.29766e-4 -0.00499469 0.001999974 6.15713e-4 -0.004961907 0.001773715 6.15713e-4 -0.004961907 0.001999974 -7.67465e-4 -0.004940748 -0.001999974 -7.67465e-4 -0.004940748 1.98698e-4 9.18496e-4 -0.004914879 -0.001999974 9.18496e-4 -0.004914879 7.90909e-4 -0.001068651 -0.004884421 0.001160919 -0.001068651 -0.004884421 0.001999974 0.001337409 -0.004817783 0.001999974 -0.001589536 -0.004740595 -0.001999974 -0.001589536 -0.004740595 -1.33604e-4 0.001734018 -0.004689633 -0.001999974 0.001734018 -0.004689633 0.001033842 0.001734018 -0.004689633 0.001999974 0.001731872 -0.004683375 0.001329302 -0.00187695 -0.00463432 8.23292e-4 -0.00187695 -0.00463432 0.001999974 0.001881778 -0.004632353 0.001074492 -0.002366125 -0.004404664 -0.001999974 -0.002366125 -0.004404664 -4.7755e-4 0.002499997 -0.004330098 -0.001999974 0.002499997 -0.004330098 0.001999974 -0.002631485 -0.00425148 4.7755e-4 -0.002631485 -0.00425148 0.001999974 0.003070771 -0.003945827 -0.001074492 0.05079996 -0.003945827 -0.001074492 -0.003074944 -0.003942608 -0.001999974 -0.003074944 -0.003942608 -8.23292e-4 0.003194332 -0.003846585 -0.001999974 0.003194332 -0.003846585 -0.001033842 0.003194332 -0.003846585 0.001999974 0.00318998 -0.003841578 -0.001329302 -0.00331068 -0.003746867 1.33604e-4 -0.00331068 -0.003746867 0.001999974 0.00350362 -0.003567099 -0.001999974 0.05079996 -0.003567099 -0.001999974 -0.003695726 -0.003367662 -0.001999974 -0.003695726 -0.003367662 -0.001160919 0.003797173 -0.003252863 -7.90909e-4 0.003797173 -0.003252863 0.001999974 -0.003895044 -0.003134965 -1.98698e-4 -0.003895044 -0.003134965 0.001999974 0.003989279 -0.003014147 -0.001999974 0.003989279 -0.003014147 -0.001773715 -0.00421065 -0.002696335 -0.001999974 -0.00421065 -0.002696335 -0.001480758 0.004291296 -0.002566039 -5.09839e-4 0.004291296 -0.002566039 0.001999974 -0.004367887 -0.0024333 -5.09839e-4 -0.004367887 -0.0024333 0.001999974 0.004440426 -0.002298355 -0.001999974 0.004440426 -0.002298355 -0.001480758 -0.004604995 -0.0019477 -0.001999974 -0.004604995 -0.0019477 -0.001773715 0.004662513 -0.001805722 -1.98698e-4 0.004662513 -0.001805722 0.001999974 -0.004715681 -0.001662015 -7.90909e-4 -0.004715681 -0.001662015 0.001999974 0.004764378 -0.001516699 -0.001999974 0.004764378 -0.001516699 -0.001160919 -0.004841029 -0.001250624 -0.001999974 0 -0.000999987 -0.001999974 0 -0.000999987 0.001999974 0 -0.000999987 0.001999974 0.004900217 -9.93697e-4 1.33604e-4 0.004900217 -9.93697e-4 0.001999974 -1.73648e-4 -9.84808e-4 -0.001999974 1.73648e-4 -9.84808e-4 -0.001999974 -1.73648e-4 -9.84808e-4 0.001999974 1.73648e-4 -9.84808e-4 0.001999974 -3.4202e-4 -9.39693e-4 -0.001999974 3.4202e-4 -9.39693e-4 -0.001999974 -3.4202e-4 -9.39693e-4 0.001999974 3.4202e-4 -9.39693e-4 0.001999974 -5e-4 -8.66025e-4 -0.001999974 5e-4 -8.66025e-4 -0.001999974 -5e-4 -8.66025e-4 0.001999974 5e-4 -8.66025e-4 0.001999974 -0.00492835 -8.43079e-4 -0.001999974 -0.00492835 -8.43079e-4 -0.001033842 -0.00492835 -8.43079e-4 0.001999974 -0.004921913 -8.41838e-4 -0.001329302 -6.42788e-4 -7.66044e-4 -0.001999974 6.42788e-4 -7.66044e-4 -0.001999974 -6.42788e-4 -7.66044e-4 0.001999974 6.42788e-4 -7.66044e-4 0.001999974 0.004951894 -6.9167e-4 -0.001999974 0.004951894 -6.9167e-4 -8.23292e-4 -0.004952609 -6.86471e-4 -0.001074492 -7.66044e-4 -6.42788e-4 -0.001999974 7.66044e-4 -6.42788e-4 -0.001999974 -7.66044e-4 -6.42788e-4 0.001999974 7.66044e-4 -6.42788e-4 0.001999974 -8.66025e-4 -5e-4 -0.001999974 8.66025e-4 -5e-4 -0.001999974 -8.66025e-4 -5e-4 0.001999974 8.66025e-4 -5e-4 0.001999974 -9.39693e-4 -3.4202e-4 -0.001999974 9.39693e-4 -3.4202e-4 -0.001999974 -9.39693e-4 -3.4202e-4 0.001999974 9.39693e-4 -3.4202e-4 0.001999974 -9.84808e-4 -1.73648e-4 -0.001999974 9.84808e-4 -1.73648e-4 -0.001999974 -9.84808e-4 -1.73648e-4 0.001999974 9.84808e-4 -1.73648e-4 0.001999974 0.004997611 -1.53207e-4 4.7755e-4 0.004997611 -1.53207e-4 0.001999974 -0.004999995 0 0.001999974 -0.004999995 0 -0.001999974 -0.004999995 0 -0.001999974 -0.000999987 0 0.001999974 0.000999987 0 0.001999974 -0.000999987 0 -0.001999974 -0.000999987 0 -0.001999974 0.000999987 0 -0.001999974 0.000999987 0 -0.001999974 0.004997611 1.53207e-4 -0.001999974 0.004997611 1.53207e-4 -4.7755e-4 -9.84808e-4 1.73648e-4 -0.001999974 9.84808e-4 1.73648e-4 -0.001999974 -9.84808e-4 1.73648e-4 0.001999974 9.84808e-4 1.73648e-4 0.001999974 -9.39693e-4 3.4202e-4 -0.001999974 9.39693e-4 3.4202e-4 -0.001999974 -9.39693e-4 3.4202e-4 0.001999974 9.39693e-4 3.4202e-4 0.001999974 -8.66025e-4 5e-4 -0.001999974 8.66025e-4 5e-4 -0.001999974 -8.66025e-4 5e-4 0.001999974 8.66025e-4 5e-4 0.001999974 -7.66044e-4 6.42788e-4 -0.001999974 7.66044e-4 6.42788e-4 -0.001999974 -7.66044e-4 6.42788e-4 0.001999974 7.66044e-4 6.42788e-4 0.001999974 -0.004952609 6.86471e-4 0.001074492 0.004951894 6.9167e-4 8.23292e-4 0.004951894 6.9167e-4 0.001999974 -6.42788e-4 7.66044e-4 -0.001999974 6.42788e-4 7.66044e-4 -0.001999974 -6.42788e-4 7.66044e-4 0.001999974 6.42788e-4 7.66044e-4 0.001999974 -0.004921913 8.41838e-4 0.001329302 -0.00492835 8.43079e-4 -0.001999974 -0.00492835 8.43079e-4 0.001033842 -0.00492835 8.43079e-4 0.001999974 -5e-4 8.66025e-4 -0.001999974 5e-4 8.66025e-4 -0.001999974 -5e-4 8.66025e-4 0.001999974 5e-4 8.66025e-4 0.001999974 -3.4202e-4 9.39693e-4 -0.001999974 3.4202e-4 9.39693e-4 -0.001999974 -3.4202e-4 9.39693e-4 0.001999974 3.4202e-4 9.39693e-4 0.001999974 -1.73648e-4 9.84808e-4 -0.001999974 1.73648e-4 9.84808e-4 -0.001999974 -1.73648e-4 9.84808e-4 0.001999974 1.73648e-4 9.84808e-4 0.001999974 0.004900217 9.93697e-4 -0.001999974 0.004900217 9.93697e-4 -1.33604e-4 0 0.000999987 -0.001999974 0 0.000999987 -0.001999974 0 0.000999987 0.001999974 0 0.000999987 0.001999974 -0.004841029 0.001250624 0.001999974 0.004764378 0.001516699 0.001160919 0.004764378 0.001516699 0.001999974 -0.004715681 0.001662015 -0.001999974 -0.004715681 0.001662015 7.90909e-4 0.004662513 0.001805722 -0.001999974 0.004662513 0.001805722 1.98698e-4 -0.004604995 0.0019477 0.001773715 -0.004604995 0.0019477 0.001999974 0.004440426 0.002298355 0.001480758 0.004440426 0.002298355 0.001999974 -0.004367887 0.0024333 -0.001999974 -0.004367887 0.0024333 5.09839e-4 0.004291296 0.002566039 -0.001999974 0.004291296 0.002566039 5.09839e-4 -0.00421065 0.002696335 0.001480758 -0.00421065 0.002696335 0.001999974 0.003989279 0.003014147 0.001773715 0.003989279 0.003014147 0.001999974 -0.003895044 0.003134965 -0.001999974 -0.003895044 0.003134965 1.98698e-4 0.003797173 0.003252863 -0.001999974 0.003797173 0.003252863 7.90909e-4 -0.003695726 0.003367662 0.001160919 -0.003695726 0.003367662 0.001999974 0.00350362 0.003567099 0.001999974 0.05079996 0.003567099 0.001999974 -0.00331068 0.003746867 -0.001999974 -0.00331068 0.003746867 -1.33604e-4 0.00318998 0.003841578 0.001329302 0.003194332 0.003846585 -0.001999974 0.003194332 0.003846585 0.001033842 0.003194332 0.003846585 0.001999974 -0.003074944 0.003942608 8.23292e-4 -0.003074944 0.003942608 0.001999974 0.003070771 0.003945827 0.001074492 0.05079996 0.003945827 0.001074492 -0.002631485 0.00425148 -0.001999974 -0.002631485 0.00425148 -4.7755e-4 0.002499997 0.004330098 -0.001999974 0.002499997 0.004330098 0.001999974 -0.002366125 0.004404664 4.7755e-4 -0.002366125 0.004404664 0.001999974 0.001881778 0.004632353 -0.001074492 -0.00187695 0.00463432 -0.001999974 -0.00187695 0.00463432 -8.23292e-4 0.001731872 0.004683375 -0.001329302 0.001734018 0.004689633 -0.001999974 0.001734018 0.004689633 -0.001033842 0.001734018 0.004689633 0.001999974 -0.001589536 0.004740595 1.33604e-4 -0.001589536 0.004740595 0.001999974 0.001337409 0.004817783 -0.001999974 -0.001068651 0.004884421 -0.001999974 -0.001068651 0.004884421 -0.001160919 9.18496e-4 0.004914879 -7.90909e-4 9.18496e-4 0.004914879 0.001999974 -7.67465e-4 0.004940748 -1.98698e-4 -7.67465e-4 0.004940748 0.001999974 6.15713e-4 0.004961907 -0.001999974 6.15713e-4 0.004961907 -0.001773715 -2.29766e-4 0.00499469 -0.001999974 -2.29766e-4 0.00499469 -0.001480758 7.66125e-5 0.004999399 -5.09839e-4 7.66125e-5 0.004999399 0.001999974 -0.02881723 0.04202109 0.001074492 -0.02848923 0.04221051 0.001999974 -0.02231073 0.04577761 -0.001999974 -0.02198272 0.04596698 -0.001074492</float_array>
          <technique_common>
            <accessor source="#TABV_propeller__003-mesh-positions-array" count="240" stride="3">
              <param name="X" type="float"/>
              <param name="Y" type="float"/>
              <param name="Z" type="float"/>
            </accessor>
          </technique_common>
        </source>
        <source id="TABV_propeller__003-mesh-normals">
          <float_array id="TABV_propeller__003-mesh-normals-array" count="1143">-0.5000004 -0.8660253 0 -0.5 -0.8660254 0 0.8015105 -0.4627523 0.3787366 0.8015121 -0.4627531 0.3787322 0.3279906 -0.1893656 -0.9255068 0.3279964 -0.1893689 -0.9255042 0.3279957 -0.1893684 -0.9255044 0.327995 -0.189368 -0.9255048 0.327996 -0.1893685 -0.9255044 0.3279953 -0.1893682 -0.9255047 0.3279945 -0.1893677 -0.9255051 0.3279956 -0.1893683 -0.9255045 0.801511 -0.4627525 0.378735 -0.3279951 0.1893683 0.9255047 -0.3279946 0.1893677 0.9255051 -0.3279952 0.1893678 0.9255048 -0.3279958 0.1893686 0.9255044 -0.3279953 0.1893681 0.9255046 0.3279955 -0.1893683 -0.9255046 0.3279946 -0.1893677 -0.9255051 0.3279961 -0.1893683 -0.9255044 0.3279951 -0.1893681 -0.9255048 -0.801511 0.4627525 -0.378735 -0.8015109 0.4627526 -0.3787352 -0.8015065 0.4627502 -0.3787475 -0.3279906 0.1893656 0.9255068 -0.3279953 0.1893681 0.9255046 -0.3279949 0.189368 0.9255049 -0.3279958 0.1893685 0.9255044 -0.327995 0.1893678 0.9255048 -0.3279945 0.1893677 0.9255051 -0.3279956 0.1893683 0.9255045 0.09986931 -0.9950006 0 -0.06933403 -0.9975935 0 -0.06933403 -0.9975936 0 4.63373e-7 0 -1 2.62357e-6 0 -1 -5.39127e-7 0 -1 0.09986931 -0.9950007 0 0.03873324 -0.9992496 0 -0.1303099 -0.9914733 0 -0.1303099 -0.9914733 0 0.03873336 -0.9992497 0 -2.10438e-7 0 1 0 0 1 -5.38629e-7 0 1 0.1958451 -0.9806348 0 6.19954e-7 0 1 -0.2365512 -0.9716191 0 -0.2365512 -0.971619 0 0 0 -1 5.39052e-7 0 -1 0.2662115 -0.9639146 0 0 0 -1 -2.62189e-6 0 -1 0.2662114 -0.9639147 0 -0.2956227 -0.9553048 0 -0.2956228 -0.9553048 0 -2.02053e-7 0 1 2.63329e-6 0 1 0.3074021 -0.9515289 -0.0098477 -2.60647e-6 0 1 1.09195e-6 0 1 -0.3969947 -0.9178211 0 -0.3969946 -0.9178209 0 0.4249291 -0.9052197 -0.003546774 0.3616357 -0.9323195 0 0 0 -1 0.4249116 -0.9051818 -0.009795904 0.3864747 -0.9213102 0.04272061 -0.4524692 -0.8917801 0 -0.4524691 -0.8917801 0 0.4392236 -0.8983778 0 -0.5460696 -0.8377399 0 -0.5460693 -0.83774 0 0.6046391 -0.7953529 -0.04272204 0.5714552 -0.8205748 0.009796679 0.5584065 -0.8295675 0 0.571479 -0.8206091 0.003546833 -0.5963591 -0.8027179 0 -0.596359 -0.8027179 0 -1.34744e-7 0 1 0.626594 -0.779346 0 0 -0.3787356 0.9255051 0 -0.9255048 -0.378736 0 -0.3787364 0.9255046 0 -0.3787362 0.9255048 0 -0.3787361 0.9255048 0 -0.3787364 0.9255047 0 -0.3787363 0.9255046 0 -0.3787363 0.9255048 0 -0.3787364 0.9255046 0 -0.9255045 -0.3787368 1 0 0 -0.6795067 -0.7336694 0 -0.679507 -0.7336691 0 2.69405e-7 0 -1 0.6703475 -0.7419821 0.009847223 3.41236e-7 0 -1 0.7016691 -0.712503 0 0.7016687 -0.7125034 0 0 -0.9255049 -0.3787357 -0.7231715 -0.6906686 0 -0.7231712 -0.6906688 0 0 0 1 0.7513321 -0.6599245 0 -1.30324e-6 0 -1 2.32483e-7 0 -1 0 0.3787368 -0.9255044 0 0.3787363 -0.9255046 0 0.3787359 -0.9255049 0 0.3787364 -0.9255046 0 0.3787363 -0.9255046 -0.7934856 -0.6085891 0 -0.7934864 -0.6085881 0 0.8117611 -0.5839897 0 0.8117612 -0.5839896 0 -0.829274 -0.5588424 0 -0.8292752 -0.5588406 0 0 0 1 1.31267e-6 0 1 0.8460095 -0.533168 0 0 0 -1 0.8460086 -0.5331693 0 -0.8847424 -0.4660806 0 -0.8847423 -0.4660806 0 -2.69315e-7 0 -1 0.8986083 -0.438752 0 0.8986078 -0.4387529 0 -0.9116302 -0.4110116 0 -0.9116303 -0.4110114 0 1.34799e-7 0 1 0.9237958 -0.3828857 0 -1.3468e-7 0 -1 0.9237965 -0.382884 0 -0.947177 -0.3207114 0 0.9597226 -0.2809492 0 0.9597225 -0.2809501 0 6.56334e-7 0 1 -0.9678804 -0.2514113 0 -0.9678804 -0.2514113 0 0 0 1 0.9751297 -0.2216352 0 6.58324e-7 0 -1 0.9751294 -0.2216364 0 -0.9777494 -0.2095455 0.009847044 -3.25809e-7 0 -1 2.72989e-7 0 -1 -0.08715611 0.9961947 0 0.08715611 0.9961947 0 0.08715611 0.9961947 0 0.9933537 -0.1151025 0 0.9933536 -0.1151034 0 -1.34744e-7 0 1 0.2588191 0.9659258 0 0.2588189 0.9659259 0 -0.2588191 0.9659258 0 -0.2588189 0.9659259 0 0.4226182 0.9063078 0 0.4226181 0.9063079 0 -0.4226182 0.9063078 0 -0.4226181 0.9063079 0 0.5735766 0.8191521 0 -0.5735766 0.8191521 0 -0.9963662 -0.0846076 0.009795844 -0.9882305 -0.1529724 0 -0.9964079 -0.08461058 0.003546774 3.27537e-7 0 1 -0.9911158 -0.1259548 -0.04272037 0.707107 0.7071067 0 0.7071066 0.707107 0 -0.707107 0.7071067 0 -0.7071066 0.707107 0 0.9985388 -0.05403918 0 0.9985388 -0.05404072 0 0 0.3787363 -0.9255048 -0.9976298 -0.06881058 0 0.8191519 0.5735766 0 -0.8191519 0.5735766 0 0.9063078 0.4226184 0 0.906308 0.4226178 0 -0.9063078 0.4226184 0 -0.906308 0.4226178 0 0.965926 0.2588185 0 0.9659258 0.2588197 0 -0.965926 0.2588185 0 -0.9659258 0.2588197 0 0.9961947 0.08715546 0 0.9961947 0.08715677 0 1.64321e-7 0 -1 -0.9961947 0.08715546 0 -0.9961947 0.08715677 0 0.9985388 0.0540409 0 0.9985388 0.05403918 0 1.64321e-7 0 1 -0.9911158 0.1259548 0.04272037 -0.9963662 0.0846076 -0.009795904 -0.9976297 0.06881123 0 -0.9964079 0.08461058 -0.003546774 0 0 -1 0 0 -1 0.9961947 -0.08715677 0 -0.9961947 -0.08715546 0 -0.9961947 -0.08715677 0 0.9961947 -0.08715546 0 0 0 -1 0.9933536 0.1151034 0 0.9933536 0.1151027 0 0 0.3787364 -0.9255046 2.45652e-7 0 -1 0.9659258 -0.2588197 0 0.965926 -0.2588185 0 6.56334e-7 0 -1 0 0 -1 -0.9659258 -0.2588197 0 -6.51618e-7 0 1 2.72989e-7 0 1 0 0 1 -0.965926 -0.2588185 0 1.63868e-7 0 -1 0.906308 -0.4226178 0 0.9063078 -0.4226184 0 1.34782e-7 0 -1 -0.906308 -0.4226178 0 -1.34657e-7 0 1 4.93743e-7 0 1 -0.9063078 -0.4226184 0 2.69599e-7 0 -1 -5.73905e-7 0 -1 0.8191519 -0.5735766 0 -0.8191519 -0.5735766 0 -1.3468e-7 0 1 0 0 1 9.845e-7 0 -1 0.7071066 -0.707107 0 0.707107 -0.7071067 0 -0.7071066 -0.707107 0 -9.77427e-7 0 1 3.09977e-7 0 1 -0.707107 -0.7071067 0 -0.9882304 0.1529733 0 -0.8015065 -0.4627502 0.3787475 -0.327987 -0.1893637 -0.9255085 0.9751295 0.2216359 0 0 -0.3787364 0.9255046 0.9751297 0.2216352 0 0 0 -1 0.5735766 -0.8191521 0 -0.5735766 -0.8191521 0 5.45977e-7 0 1 0 0 1 -0.9777494 0.2095455 -0.009847044 -0.801511 -0.4627525 0.378735 -0.8015109 -0.4627525 0.3787352 -0.9678804 0.2514113 0 -0.9678804 0.2514113 0 -0.3279959 -0.1893685 -0.9255043 -2.69487e-7 0 -1 2.46482e-7 0 -1 0.4226181 -0.9063079 0 0.4226182 -0.9063078 0 -0.4226181 -0.9063079 0 -2.45511e-7 0 1 -0.4226182 -0.9063078 0 -5.75569e-7 0 -1 0.2588189 -0.9659259 0 0.2588191 -0.9659258 0 -2.60647e-6 0 -1 5.45977e-7 0 -1 -0.2588189 -0.9659259 0 2.69526e-7 0 1 5.73189e-7 0 1 -0.2588191 -0.9659258 0 1.9544e-6 0 -1 0.08715611 -0.9961947 0 -5.38629e-7 0 -1 6.19954e-7 0 -1 -0.08715611 -0.9961947 0 2.62357e-6 0 1 -5.39127e-7 0 1 -1.94593e-6 0 1 0.9597225 0.2809501 0 0.9597226 0.2809495 0 0 0.3787361 -0.9255048 5.39197e-7 0 1 -0.947177 0.3207114 0 0.3279946 0.1893677 0.9255051 0.9237967 0.3828834 0 0 -0.378736 0.9255048 0.9237958 0.3828857 0 -0.9116303 0.4110113 0 -0.9116302 0.4110116 0 -0.327995 -0.1893678 -0.9255048 0.8986078 0.4387529 0 0.8986084 0.4387518 0 0 0.3787361 -0.9255048 -0.8847423 0.4660806 0 -0.8847424 0.4660806 0 0.3279955 0.1893683 0.9255046 0.8460086 0.5331693 0 0 -0.3787363 0.9255046 0.8460095 0.533168 0 -0.8292751 0.5588408 0 -0.829274 0.5588424 0 -0.3279958 -0.1893685 -0.9255044 0.8117612 0.5839896 0 0.8117613 0.5839895 0 0 0.3787364 -0.9255047 -0.7934864 0.6085881 0 -0.7934856 0.6085891 0 0.3279961 0.1893683 0.9255044 0.7513321 0.6599245 0 0 -0.3787368 0.9255045 -0.7231712 0.6906689 0 -0.7231715 0.6906686 0 -0.3279949 -0.189368 -0.9255049 0.7016687 0.7125034 0 0.701669 0.7125031 0 0 0.3787364 -0.9255046 -0.679507 0.7336691 0 -0.6795067 0.7336694 0 0.3279951 0.189368 0.9255048 0.6703475 0.7419821 -0.009846925 0 0.9255048 0.378736 0 0.9255045 0.3787368 -0.596359 0.8027178 0 -0.5963591 0.8027179 0 -0.3279958 -0.1893684 -0.9255044 0.6046391 0.795353 0.04272347 0.5714552 0.8205749 -0.009796559 0 0.9255049 0.3787356 0.571479 0.8206091 -0.003546893 0.626594 0.779346 0 0 0.3787353 -0.9255052 -0.5460693 0.83774 0 -0.5460696 0.8377398 0 0.3279953 0.1893681 0.9255046 0.3279945 0.1893677 0.9255051 0.5584065 0.8295675 0 -0.4524692 0.8917801 0 -0.4524692 0.8917801 0 -0.3279941 -0.1893674 -0.9255053 0.3864749 0.9213101 -0.04272061 0.4249116 0.9051818 0.009795904 0.4392236 0.8983778 0 0.4249291 0.9052197 0.003546655 -0.3969946 0.9178209 0 -0.3969946 0.9178211 0 0.3279956 0.1893683 0.9255045 0.3616357 0.9323195 0 0.3279908 0.1893654 0.9255068 0.8015121 0.4627531 -0.3787322 -0.2956228 0.9553048 0 -0.2956227 0.9553048 0 -0.3279959 -0.1893686 -0.9255043 -0.3279953 -0.1893681 -0.9255046 0.3074021 0.9515289 0.0098477 0.801511 0.4627525 -0.378735 0.8015102 0.4627522 -0.3787372 0.2662115 0.9639147 0 0.327996 0.1893686 0.9255043 0.2662115 0.9639146 0 -0.2365512 0.971619 0 -0.2365512 0.9716191 0 0.3279957 0.1893684 0.9255044 0.1958451 0.9806348 0 -0.3279946 -0.1893677 -0.9255051 -0.1303099 0.9914733 0 -0.1303099 0.9914733 0 -0.3279953 -0.1893679 -0.9255047 0.09986931 0.9950007 0 0.3279955 0.1893683 0.9255046 0.09986931 0.9950006 0 -0.06933403 0.9975936 0 -0.06933403 0.9975935 0 0.327995 0.189368 0.9255048 0.03873336 0.9992497 0 0.03873324 0.9992496 0 -0.3279951 -0.1893683 -0.9255047 -0.5000004 0.8660253 0 -0.5 0.8660254 0</float_array>
          <technique_common>
            <accessor source="#TABV_propeller__003-mesh-normals-array" count="381" stride="3">
              <param name="X" type="float"/>
              <param name="Y" type="float"/>
              <param name="Z" type="float"/>
            </accessor>
          </technique_common>
        </source>
        <vertices id="TABV_propeller__003-mesh-vertices">
          <input semantic="POSITION" source="#TABV_propeller__003-mesh-positions"/>
        </vertices>
        <triangles count="468">
          <input semantic="VERTEX" source="#TABV_propeller__003-mesh-vertices" offset="0"/>
          <input semantic="NORMAL" source="#TABV_propeller__003-mesh-normals" offset="1"/>
          <p>3 0 2 0 0 0 1 1 3 1 0 1 22 2 1 2 0 2 25 3 22 3 0 3 20 4 25 4 0 4 13 5 20 5 0 5 18 6 11 6 0 6 11 7 5 7 0 7 5 8 13 8 0 8 2 9 35 9 0 9 35 10 27 10 0 10 27 11 18 11 0 11 22 12 16 12 1 12 8 13 6 13 1 13 16 14 8 14 1 14 6 15 14 15 1 15 14 16 23 16 1 16 23 17 3 17 1 17 61 18 53 18 2 18 68 19 61 19 2 19 53 20 45 20 2 20 45 21 35 21 2 21 89 22 68 22 2 22 3 23 89 23 2 23 96 24 89 24 3 24 87 25 96 25 3 25 64 26 87 26 3 26 40 27 48 27 3 27 48 28 56 28 3 28 56 29 64 29 3 29 23 30 30 30 3 30 30 31 40 31 3 31 12 32 5 32 4 32 5 33 11 33 4 33 11 34 10 34 4 34 69 35 12 35 4 35 74 36 69 36 4 36 10 37 74 37 4 37 12 38 13 38 5 38 8 39 7 39 6 39 7 40 15 40 6 40 15 41 14 41 6 41 8 42 9 42 7 42 71 43 15 43 7 43 77 44 71 44 7 44 9 45 77 45 7 45 16 46 9 46 8 46 16 47 77 47 9 47 11 48 18 48 10 48 18 49 17 49 10 49 78 50 74 50 10 50 17 51 78 51 10 51 19 52 13 52 12 52 75 53 19 53 12 53 69 54 75 54 12 54 19 55 20 55 13 55 15 56 24 56 14 56 24 57 23 57 14 57 76 58 24 58 15 58 71 59 76 59 15 59 22 60 21 60 16 60 81 61 77 61 16 61 21 62 81 62 16 62 18 63 27 63 17 63 27 64 26 64 17 64 82 50 78 50 17 50 26 50 82 50 17 50 28 65 25 65 19 65 25 66 20 66 19 66 79 67 28 67 19 67 75 50 79 50 19 50 22 68 29 68 21 68 85 44 81 44 21 44 29 44 85 44 21 44 25 69 29 69 22 69 24 70 31 70 23 70 31 71 30 71 23 71 80 44 31 44 24 44 76 44 80 44 24 44 28 72 29 72 25 72 27 73 35 73 26 73 35 74 34 74 26 74 90 50 82 50 26 50 34 50 90 50 26 50 39 75 32 75 28 75 36 76 39 76 28 76 32 77 29 77 28 77 83 50 36 50 28 50 79 50 83 50 28 50 32 78 38 78 29 78 93 44 85 44 29 44 38 44 93 44 29 44 31 79 41 79 30 79 41 80 40 80 30 80 84 81 41 81 31 81 80 44 84 44 31 44 37 82 38 82 32 82 33 83 37 83 32 83 39 84 33 84 32 84 46 85 37 85 33 85 72 86 62 86 33 86 62 87 54 87 33 87 54 88 46 88 33 88 197 89 143 89 33 89 143 90 113 90 33 90 113 91 72 91 33 91 39 92 43 92 33 92 43 93 207 93 33 93 207 93 197 93 33 93 35 94 45 94 34 94 45 95 44 95 34 95 97 50 90 50 34 50 44 96 97 96 34 96 42 97 39 97 36 97 91 98 42 98 36 98 83 50 91 50 36 50 46 99 38 99 37 99 46 100 47 100 38 100 100 44 93 44 38 44 47 44 100 44 38 44 42 101 43 101 39 101 41 102 49 102 40 102 49 103 48 103 40 103 92 104 49 104 41 104 84 44 92 44 41 44 50 105 51 105 42 105 91 106 98 106 42 106 98 107 50 107 42 107 51 108 43 108 42 108 51 109 59 109 43 109 59 110 67 110 43 110 67 111 95 111 43 111 95 112 207 112 43 112 45 113 53 113 44 113 53 114 52 114 44 114 101 50 97 50 44 50 52 50 101 50 44 50 54 115 47 115 46 115 54 116 55 116 47 116 104 44 100 44 47 44 55 44 104 44 47 44 49 117 57 117 48 117 57 118 56 118 48 118 99 119 57 119 49 119 92 120 99 120 49 120 58 121 51 121 50 121 98 122 58 122 50 122 58 123 59 123 51 123 53 124 61 124 52 124 61 125 60 125 52 125 105 50 101 50 52 50 60 126 105 126 52 126 62 127 55 127 54 127 62 128 63 128 55 128 108 44 104 44 55 44 63 44 108 44 55 44 57 129 65 129 56 129 65 130 64 130 56 130 103 131 65 131 57 131 99 44 103 44 57 44 66 132 59 132 58 132 102 133 66 133 58 133 98 50 102 50 58 50 66 134 67 134 59 134 61 135 68 135 60 135 68 50 105 50 60 50 72 136 63 136 62 136 72 137 73 137 63 137 112 138 108 138 63 138 73 44 112 44 63 44 65 139 88 139 64 139 88 140 87 140 64 140 107 141 88 141 65 141 103 44 107 44 65 44 94 142 67 142 66 142 106 50 94 50 66 50 102 143 106 143 66 143 94 144 95 144 67 144 89 145 86 145 68 145 109 146 105 146 68 146 86 147 109 147 68 147 71 148 75 148 69 148 76 149 71 149 69 149 74 150 76 150 69 150 77 148 75 148 71 148 113 151 73 151 72 151 113 152 114 152 73 152 119 44 112 44 73 44 114 153 119 153 73 153 80 154 76 154 74 154 78 155 80 155 74 155 77 156 79 156 75 156 81 157 79 157 77 157 84 158 80 158 78 158 82 159 84 159 78 159 81 160 83 160 79 160 85 161 83 161 81 161 92 162 84 162 82 162 90 162 92 162 82 162 85 163 91 163 83 163 93 163 91 163 85 163 89 164 116 164 86 164 121 50 109 50 86 50 116 50 121 50 86 50 88 165 96 165 87 165 115 166 96 166 88 166 111 44 115 44 88 44 107 167 111 167 88 167 96 168 116 168 89 168 99 169 92 169 90 169 97 170 99 170 90 170 93 171 98 171 91 171 100 172 98 172 93 172 124 173 95 173 94 173 110 50 124 50 94 50 106 50 110 50 94 50 124 174 125 174 95 174 125 175 207 175 95 175 115 176 116 176 96 176 103 177 99 177 97 177 101 177 103 177 97 177 100 178 102 178 98 178 104 178 102 178 100 178 107 179 103 179 101 179 105 180 107 180 101 180 104 181 106 181 102 181 108 182 106 182 104 182 111 183 107 183 105 183 109 184 111 184 105 184 108 185 110 185 106 185 112 186 110 186 108 186 118 187 111 187 109 187 121 188 118 188 109 188 123 189 124 189 110 189 112 190 123 190 110 190 118 44 115 44 111 44 119 191 123 191 112 191 143 192 114 192 113 192 143 193 144 193 114 193 129 194 119 194 114 194 144 44 129 44 114 44 149 195 142 195 115 195 152 196 149 196 115 196 142 197 116 197 115 197 118 44 152 44 115 44 142 198 150 198 116 198 126 199 121 199 116 199 150 200 126 200 116 200 128 44 152 44 118 44 121 201 128 201 118 201 129 202 127 202 119 202 127 203 123 203 119 203 126 204 128 204 121 204 127 50 165 50 123 50 165 205 124 205 123 205 165 206 125 206 124 206 165 207 166 207 125 207 166 208 207 208 125 208 150 209 130 209 126 209 132 210 128 210 126 210 130 211 132 211 126 211 131 212 176 212 127 212 176 213 165 213 127 213 129 214 131 214 127 214 132 215 171 215 128 215 171 216 152 216 128 216 144 217 133 217 129 217 133 218 131 218 129 218 150 50 174 50 130 50 174 219 134 219 130 219 136 220 132 220 130 220 134 221 136 221 130 221 135 50 184 50 131 50 184 222 176 222 131 222 133 223 135 223 131 223 136 44 187 44 132 44 187 224 179 224 132 224 179 44 171 44 132 44 144 44 173 44 133 44 173 225 137 225 133 225 137 226 135 226 133 226 174 227 182 227 134 227 182 228 138 228 134 228 140 229 136 229 134 229 138 229 140 229 134 229 139 50 192 50 135 50 192 50 184 50 135 50 137 230 139 230 135 230 140 44 195 44 136 44 195 44 187 44 136 44 173 231 181 231 137 231 181 232 141 232 137 232 141 230 139 230 137 230 182 50 190 50 138 50 190 233 145 233 138 233 147 234 140 234 138 234 145 235 147 235 138 235 146 50 201 50 139 50 201 50 192 50 139 50 141 236 146 236 139 236 147 44 205 44 140 44 205 44 195 44 140 44 196 237 148 237 141 237 181 44 189 44 141 44 189 238 196 238 141 238 148 239 146 239 141 239 151 240 150 240 142 240 149 241 236 241 142 241 236 242 151 242 142 242 172 243 144 243 143 243 197 244 172 244 143 244 172 245 173 245 144 245 190 50 198 50 145 50 198 246 153 246 145 246 155 247 147 247 145 247 153 247 155 247 145 247 154 50 210 50 146 50 210 50 201 50 146 50 148 248 154 248 146 248 155 44 213 44 147 44 213 44 205 44 147 44 196 249 203 249 148 249 203 250 156 250 148 250 156 248 154 248 148 248 152 251 171 251 149 251 171 252 237 252 149 252 237 253 236 253 149 253 151 254 175 254 150 254 175 255 174 255 150 255 236 256 175 256 151 256 198 257 208 257 153 257 208 258 157 258 153 258 159 259 155 259 153 259 157 260 159 260 153 260 158 50 218 50 154 50 218 50 210 50 154 50 156 261 158 261 154 261 159 44 222 44 155 44 222 44 213 44 155 44 203 44 211 44 156 44 211 262 160 262 156 262 160 263 158 263 156 263 208 50 215 50 157 50 215 264 161 264 157 264 163 265 159 265 157 265 161 266 163 266 157 266 162 267 223 267 158 267 223 268 218 268 158 268 160 269 162 269 158 269 163 44 229 44 159 44 229 270 222 270 159 270 211 44 220 44 160 44 220 271 164 271 160 271 164 272 162 272 160 272 215 50 224 50 161 50 224 273 167 273 161 273 169 274 163 274 161 274 167 274 169 274 161 274 167 50 232 50 162 50 232 275 230 275 162 275 230 276 223 276 162 276 164 277 167 277 162 277 169 278 235 278 163 278 235 279 229 279 163 279 220 44 227 44 164 44 227 280 169 280 164 280 169 277 167 277 164 277 176 281 166 281 165 281 176 282 177 282 166 282 177 283 207 283 166 283 224 50 232 50 167 50 227 284 235 284 169 284 179 285 178 285 171 285 178 286 237 286 171 286 180 287 173 287 172 287 197 288 180 288 172 288 180 289 181 289 173 289 175 290 183 290 174 290 183 291 182 291 174 291 236 292 183 292 175 292 184 293 177 293 176 293 184 294 185 294 177 294 185 295 207 295 177 295 179 296 187 296 178 296 187 297 186 297 178 297 186 298 237 298 178 298 188 299 181 299 180 299 197 300 188 300 180 300 188 301 189 301 181 301 183 302 191 302 182 302 191 303 190 303 182 303 236 304 191 304 183 304 192 305 185 305 184 305 192 306 193 306 185 306 193 307 207 307 185 307 187 308 195 308 186 308 195 309 194 309 186 309 194 310 237 310 186 310 196 311 189 311 188 311 197 312 196 312 188 312 191 313 199 313 190 313 199 314 198 314 190 314 236 315 199 315 191 315 201 316 193 316 192 316 201 317 202 317 193 317 202 318 207 318 193 318 195 319 205 319 194 319 205 320 204 320 194 320 204 321 237 321 194 321 200 322 203 322 196 322 197 323 200 323 196 323 207 324 200 324 197 324 199 325 209 325 198 325 209 326 208 326 198 326 236 327 209 327 199 327 206 328 211 328 200 328 211 329 203 329 200 329 207 330 206 330 200 330 210 331 206 331 201 331 206 332 202 332 201 332 206 333 207 333 202 333 205 334 213 334 204 334 213 335 212 335 204 335 239 336 237 336 204 336 212 337 239 337 204 337 210 338 211 338 206 338 209 339 216 339 208 339 216 340 215 340 208 340 236 341 216 341 209 341 217 342 214 342 210 342 218 343 217 343 210 343 214 344 211 344 210 344 214 345 220 345 211 345 213 346 222 346 212 346 222 347 221 347 212 347 221 348 239 348 212 348 219 349 220 349 214 349 239 350 219 350 214 350 217 351 239 351 214 351 216 352 225 352 215 352 225 353 224 353 215 353 238 354 225 354 216 354 236 355 238 355 216 355 218 356 223 356 217 356 223 357 238 357 217 357 238 358 239 358 217 358 226 359 220 359 219 359 239 360 226 360 219 360 226 361 227 361 220 361 222 362 229 362 221 362 229 363 228 363 221 363 228 364 239 364 221 364 230 365 231 365 223 365 231 366 238 366 223 366 225 367 233 367 224 367 233 368 232 368 224 368 238 369 233 369 225 369 234 370 227 370 226 370 239 371 234 371 226 371 234 372 235 372 227 372 229 373 235 373 228 373 235 374 234 374 228 374 234 375 239 375 228 375 232 376 231 376 230 376 232 377 233 377 231 377 233 378 238 378 231 378 239 379 238 379 236 379 237 380 239 380 236 380</p>
        </triangles>
      </mesh>
    </geometry>
  </library_geometries>
  <library_visual_scenes>
    <visual_scene id="Scene" name="Scene">
      <node id="TABV_propeller_" name="TABV_propeller " type="NODE">
        <matrix sid="transform">1 0 0 0 0 1 0 0 0 0 1 0 0 0 0 1</matrix>
        <instance_geometry url="#TABV_propeller__003-mesh" name="TABV_propeller "/>
      </node>
      <node id="Camera" name="Camera" type="NODE">
        <matrix sid="transform">0.6859207 -0.3240135 0.6515582 7.358891 0.7276763 0.3054208 -0.6141704 -6.925791 0 0.8953956 0.4452714 4.958309 0 0 0 1</matrix>
        <instance_camera url="#Camera-camera"/>
      </node>
      <node id="Light" name="Light" type="NODE">
        <matrix sid="transform">-0.2908646 -0.7711008 0.5663932 4.076245 0.9551712 -0.1998834 0.2183912 1.005454 -0.05518906 0.6045247 0.7946723 5.903862 0 0 0 1</matrix>
        <instance_light url="#Light-light"/>
      </node>
    </visual_scene>
  </library_visual_scenes>
  <scene>
    <instance_visual_scene url="#Scene"/>
  </scene>
</COLLADA>